<svg id="visual" viewBox="0 0 960 540" width="960" height="540" xmlns="http://www.w3.org/2000/svg" xmlns:xlink="http://www.w3.org/1999/xlink" version="1.1"><path d="M0 189L22.8 185.3C45.7 181.7 91.3 174.3 137 173C182.7 171.7 228.3 176.3 274 178.2C319.7 180 365.3 179 411.2 175.2C457 171.3 503 164.7 548.8 163.7C594.7 162.7 640.3 167.3 686 174.8C731.7 182.3 777.3 192.7 823 192C868.7 191.3 914.3 179.7 937.2 173.8L960 168L960 0L937.2 0C914.3 0 868.7 0 823 0C777.3 0 731.7 0 686 0C640.3 0 594.7 0 548.8 0C503 0 457 0 411.2 0C365.3 0 319.7 0 274 0C228.3 0 182.7 0 137 0C91.3 0 45.7 0 22.8 0L0 0Z" fill="#ebf6ff"></path><path d="M0 114L22.8 118.7C45.7 123.3 91.3 132.7 137 133.5C182.7 134.3 228.3 126.7 274 122.2C319.7 117.7 365.3 116.3 411.2 113.7C457 111 503 107 548.8 108.5C594.7 110 640.3 117 686 123.2C731.7 129.3 777.3 134.7 823 136.8C868.7 139 914.3 138 937.2 137.5L960 137L960 0L937.2 0C914.3 0 868.7 0 823 0C777.3 0 731.7 0 686 0C640.3 0 594.7 0 548.8 0C503 0 457 0 411.2 0C365.3 0 319.7 0 274 0C228.3 0 182.7 0 137 0C91.3 0 45.7 0 22.8 0L0 0Z" fill="#c4e4ff"></path><path d="M0 63L22.8 63C45.7 63 91.3 63 137 62C182.7 61 228.3 59 274 57C319.7 55 365.3 53 411.2 57.3C457 61.7 503 72.3 548.8 75.8C594.7 79.3 640.3 75.7 686 74.5C731.7 73.3 777.3 74.7 823 76.3C868.7 78 914.3 80 937.2 81L960 82L960 0L937.2 0C914.3 0 868.7 0 823 0C777.3 0 731.7 0 686 0C640.3 0 594.7 0 548.8 0C503 0 457 0 411.2 0C365.3 0 319.7 0 274 0C228.3 0 182.7 0 137 0C91.3 0 45.7 0 22.8 0L0 0Z" fill="#9bd2ff"></path></svg>